<svg xmlns="http://www.w3.org/2000/svg" width="54.197" height="54.188" viewBox="0 0 54.197 54.188">
  <g id="coffee-beans" transform="translate(0 -0.039)">
    <g id="Group_6385" data-name="Group 6385" transform="translate(19.683 0.039)">
      <g id="Group_6384" data-name="Group 6384" transform="translate(0 0)">
        <path id="Path_17550" data-name="Path 17550" d="M187.355,8.424c-.5.5-.947,1.038-1.411,1.565A31.461,31.461,0,0,1,199.2,16.782,20.723,20.723,0,0,1,211.881,4.721l3.737-1.272C208.628-2.513,196.311-.534,187.355,8.424Z" transform="translate(-185.944 -0.039)" fill="#a8bfbb"/>
      </g>
    </g>
    <g id="Group_6387" data-name="Group 6387" transform="translate(35.468 6.019)">
      <g id="Group_6386" data-name="Group 6386">
        <path id="Path_17551" data-name="Path 17551" d="M351.266,56.528l-5.019,1.709a17.6,17.6,0,0,0-11.176,11.3A32.144,32.144,0,0,1,343.8,85.1c.544-.476,1.1-.939,1.614-1.455C353.9,75.151,356.122,63.674,351.266,56.528Z" transform="translate(-335.071 -56.528)" fill="#a8bfbb"/>
      </g>
    </g>
    <g id="Group_6389" data-name="Group 6389" transform="translate(0 17.413)">
      <g id="Group_6388" data-name="Group 6388" transform="translate(0)">
        <path id="Path_17552" data-name="Path 17552" d="M34.148,193.859a17.921,17.921,0,0,0-13.665-11.945,21.06,21.06,0,0,1-15.8-14.006l-1.272-3.737c-5.961,6.99-3.981,19.475,4.975,28.433,5.576,5.576,12.523,8.381,18.661,8.381a15.221,15.221,0,0,0,8.624-2.5Z" transform="translate(0 -164.172)" fill="#a8bfbb"/>
      </g>
    </g>
    <g id="Group_6391" data-name="Group 6391" transform="translate(5.979 12.62)">
      <g id="Group_6390" data-name="Group 6390">
        <path id="Path_17553" data-name="Path 17553" d="M83.6,127.4c-8.494-8.494-19.972-10.883-27.119-6.026l1.709,5.019a17.876,17.876,0,0,0,13.413,11.913,21.1,21.1,0,0,1,16.066,14.069l1.09,3.317C94.732,148.708,92.564,136.366,83.6,127.4Z" transform="translate(-56.485 -118.892)" fill="#a8bfbb"/>
      </g>
    </g>
  </g>
</svg>
