<svg xmlns="http://www.w3.org/2000/svg" width="172.457" height="35.946" viewBox="0 0 172.457 35.946">
  <g id="Group_440" data-name="Group 440" transform="translate(-227.77 -242.321)">
    <g id="Group_439" data-name="Group 439" transform="translate(227.77 242.321)">
      <g id="Group_441" data-name="Group 441">
        <path id="Path_1203" data-name="Path 1203" d="M632.654,242.321a1.861,1.861,0,1,0,1.83,1.871,1.843,1.843,0,0,0-1.83-1.871m0,3.335a1.476,1.476,0,1,1,1.4-1.464,1.439,1.439,0,0,1-1.4,1.464" transform="translate(-462.028 -242.321)" fill="#151412"/>
        <path id="Path_1204" data-name="Path 1204" d="M634.968,245c0-.356-.264-.61-.874-.61h-.59v1.993h.427v-.691h.285l.366.691h.518l-.508-.783a.685.685,0,0,0,.376-.6m-.864.346h-.173v-.6h.193c.234,0,.376.112.376.264,0,.214-.152.335-.4.335" transform="translate(-463.579 -243.521)" fill="#151412"/>
        <path id="Path_1205" data-name="Path 1205" d="M248.98,255.057H247.33l-8.551,15.359-8.763-15.359h-1.649l-.6,21.184H231.4l.058-11.913,6.574,12.09h1.289l6.51-12.3.093,12.125h3.658Z" transform="translate(-227.77 -249.723)" fill="#151412"/>
        <path id="Path_1206" data-name="Path 1206" d="M300.059,255.272v7.866l3.719.1v-4.546h9.991v-3.417Zm3.719,17.671v-3.758l-3.719-.1v7.278h13.71v-3.424Z" transform="translate(-269.784 -249.848)" fill="#151412"/>
        <path id="Path_1207" data-name="Path 1207" d="M402.222,255.272v8.943l3.722.093v-9.036Zm0,14.893v6.2h3.722v-6.107Zm14.012.351v5.85h3.719v-5.757Zm0-15.215v9.268l3.719.093V255.3Z" transform="translate(-329.16 -249.848)" fill="#151412"/>
        <path id="Path_1208" data-name="Path 1208" d="M601.418,263.708c-2.973-1.08-4.111-1.919-4.111-3.269,0-1.473,1.019-2.7,3.24-2.7a10.6,10.6,0,0,1,4.71,1.408l1.2-3.3a12.426,12.426,0,0,0-5.819-1.44c-4.5,0-7.082,2.941-7.082,6.12,0,2.52,1.411,4.472,5.519,5.973,3.813,1.411,4.594,2.25,4.594,3.658,0,1.354-1.145,2.585-3.633,2.585a10.676,10.676,0,0,1-5.731-1.893l-1.289,3.362a13.663,13.663,0,0,0,6.9,2.009c4.71,0,7.558-2.311,7.558-6.063,0-2.758-1.347-4.616-6.056-6.448" transform="translate(-440.048 -249.344)" fill="#151412"/>
        <path id="Path_1209" data-name="Path 1209" d="M632.652,242.322a1.86,1.86,0,1,0,1.832,1.871,1.842,1.842,0,0,0-1.832-1.871m0,3.334a1.475,1.475,0,1,1,1.4-1.462,1.437,1.437,0,0,1-1.4,1.462" transform="translate(-462.027 -242.322)" fill="#151412"/>
        <path id="Path_1210" data-name="Path 1210" d="M634.59,245.6a.684.684,0,0,0,.376-.6c0-.353-.263-.608-.871-.608H633.5v1.99h.428v-.691h.283l.366.691h.521Zm-.485-.254h-.173v-.6h.193c.235,0,.376.112.376.267,0,.212-.151.334-.4.334" transform="translate(-463.579 -243.522)" fill="#151412"/>
        <path id="Path_1211" data-name="Path 1211" d="M416.512,279.288v4.018l-8.38-.209-1.794-.045-9.416-.238-3.748-.093-8.41-.212-4.356-.109-11.92-.3-4.443-.112-8.171-.206-3.719-.093-10.29-.257-3.722-.093-13.759-.347-3.751-.093-21.557-.54-3.719-.1-3.388-.084v-4.021l3.388.083,3.719.1,21.557.54,3.751.1,13.759.344,3.722.093,10.29.26,3.719.093,7.384.186,4.024.1,14.5.363,3.986.1,7.407.183,3.748.1,11.415.286,2.922.074,1.077.026Z" transform="translate(-265.082 -261.986)" fill="#151412"/>
        <path id="Path_1212" data-name="Path 1212" d="M343.58,255.372v3.42h7.05v17.674h3.751V258.792h6.931v-3.42Z" transform="translate(-295.078 -249.906)" fill="#151412"/>
        <path id="Path_1213" data-name="Path 1213" d="M466.251,264.26a7.241,7.241,0,0,1,14.469.363l3.979.1h.02c-.129-6.172-4.828-10.637-11.277-10.637A10.974,10.974,0,0,0,462.22,264.16c-.007.106-.013.212-.019.322-.007.167-.01.334-.01.5v.142c0,.215.01.431.026.643.006.106.016.215.026.321a11.18,11.18,0,0,0,.4,2.1c.036.109.067.218.1.325.071.222.148.437.235.649s.183.437.289.65c.052.109.109.219.164.328a11.018,11.018,0,0,0,10.01,5.731,11.14,11.14,0,0,0,9.747-5.236l-3.848-.1-.8-.02a7.184,7.184,0,0,1-10.367-.26q-.145-.16-.28-.328a6.251,6.251,0,0,1-.476-.656,6.9,6.9,0,0,1-.37-.652c-.054-.106-.106-.216-.154-.325a7.755,7.755,0,0,1-.6-2.106c-.016-.106-.029-.215-.039-.325a6.021,6.021,0,0,1-.041-.64v0c0-.061,0-.119,0-.183,0-.154,0-.309.013-.459.006-.109.013-.216.026-.322" transform="translate(-364.014 -249.161)" fill="#151412"/>
        <path id="Path_1214" data-name="Path 1214" d="M541.573,255.272H533.62v21.094h7.953a11.326,11.326,0,0,0,9.271-4.385l-2.267-.058-1.794-.045-1.2-.029a7.572,7.572,0,0,1-3.983,1.093h-4.234V258.689H541.6a6.974,6.974,0,0,1,7.259,7.172c0,.041,0,.08,0,.122l2.848.071,1.077.026.067,0c0-.093,0-.19,0-.283,0-6.118-4.742-10.528-11.28-10.528" transform="translate(-405.528 -249.848)" fill="#151412"/>
      </g>
    </g>
    <text id="coffee" transform="translate(349.599 278.267)" fill="#151412" font-size="8" font-family="TrendSansOne, Trend Sans One"><tspan x="0" y="0" letter-spacing="-0.021em">c</tspan><tspan y="0">offee</tspan></text>
  </g>
</svg>
