<svg xmlns="http://www.w3.org/2000/svg" width="59.766" height="57.988" viewBox="0 0 59.766 57.988">
  <g id="hot-coffee-rounded-cup-on-a-plate-from-side-view" transform="translate(0 -0.481)">
    <g id="Group_6382" data-name="Group 6382" transform="translate(0 0.481)">
      <path id="Path_17546" data-name="Path 17546" d="M4.342,22.313h8.138a1.471,1.471,0,0,0,1.443,1.264h18.5a1.467,1.467,0,0,0,1.443-1.264h8.138A2.49,2.49,0,0,0,44.5,19.822H1.854A2.49,2.49,0,0,0,4.342,22.313Z" transform="translate(3.261 34.411)" fill="#a8bfbb"/>
      <path id="Path_17547" data-name="Path 17547" d="M57.561,15.035c-2.075-1.68-5-1.708-6.919-1.5.055-1.341.086-2.712.086-4.138H0c0,13.711,2.075,23.6,15.2,27.3H35.524c5.2-1.459,8.649-3.912,10.936-7.173,4.982-.1,13-2.058,13.3-8.938A6.372,6.372,0,0,0,57.561,15.035ZM48.548,25.59a31.655,31.655,0,0,0,1.832-8.243c1.346-.221,3.666-.361,4.839.593.215.177.886.723.808,2.486C55.87,23.99,51.445,25.188,48.548,25.59Z" transform="translate(0 15.209)" fill="#a8bfbb"/>
      <path id="Path_17548" data-name="Path 17548" d="M8.7,23.166s9.656-.709,5.231-8.85c-3.553-6.535-2.742-10.37,1.8-13.835,0,0-14.892,3.793-6.207,15.532C12.711,21.127,8.7,23.166,8.7,23.166Z" transform="translate(11.969 -0.481)" fill="#a8bfbb"/>
      <path id="Path_17549" data-name="Path 17549" d="M9.85,15.807s7.736-1.63,3.526-7.851c-1.528-2.7.579-3.661.579-3.661s-4.98.157-2.877,4.436C12.76,12.171,12.261,14.124,9.85,15.807Z" transform="translate(17.324 6.227)" fill="#a8bfbb"/>
    </g>
  </g>
</svg>
