<svg xmlns="http://www.w3.org/2000/svg" width="46.342" height="52.727" viewBox="0 0 46.342 52.727">
  <g id="location_2_" data-name="location (2)" transform="translate(-31)">
    <g id="Group_23898" data-name="Group 23898" transform="translate(37.179)">
      <g id="Group_23897" data-name="Group 23897">
        <path id="Path_17583" data-name="Path 17583" d="M107.992,0A16.984,16.984,0,0,0,94.18,26.879L106.692,46.4a1.544,1.544,0,0,0,2.6,0l12.566-19.59A16.992,16.992,0,0,0,107.992,0Zm0,24.716a7.724,7.724,0,1,1,7.724-7.724A7.733,7.733,0,0,1,107.992,24.716Z" transform="translate(-91)" fill="#a8bfbb"/>
      </g>
    </g>
    <g id="Group_23900" data-name="Group 23900" transform="translate(31 35.497)">
      <g id="Group_23899" data-name="Group 23899">
        <path id="Path_17584" data-name="Path 17584" d="M66.247,344.7l-7.778,12.161a5.107,5.107,0,0,1-8.6,0L42.081,344.7C35.226,346.283,31,349.186,31,352.656c0,6.021,11.939,9.268,23.171,9.268s23.171-3.248,23.171-9.268C77.342,349.184,73.11,346.279,66.247,344.7Z" transform="translate(-31 -344.695)" fill="#a8bfbb"/>
      </g>
    </g>
  </g>
</svg>
